<svg width="40" height="40" viewBox="0 0 40 40" fill="none" xmlns="http://www.w3.org/2000/svg">
<path fill-rule="evenodd" clip-rule="evenodd" d="M20 0C8.95433 0 0 8.95433 0 20C0 31.0457 8.95433 40 20 40C31.0457 40 40 31.0457 40 20C40 8.95433 31.0457 0 20 0ZM12.4209 8.66667H28.2458C29.5802 8.66667 30.6667 9.74 30.6667 11.07V32L28.1276 29.7833L26.6987 28.4767L25.1871 27.0883L25.8129 29.2467H12.4209C11.0865 29.2467 10 28.1733 10 26.8433V11.07C10 9.74 11.0865 8.66667 12.4209 8.66667Z" fill="#DFD5D5"/>
<path fill-rule="evenodd" clip-rule="evenodd" d="M23.6872 23.9032C23.6872 23.9032 23.2621 23.4016 22.9078 22.9582C24.4548 22.5266 25.0453 21.5699 25.0453 21.5699C24.5611 21.8849 24.1005 22.1066 23.6872 22.2582C23.0968 22.5032 22.5298 22.6666 21.9748 22.7599C20.8411 22.9699 19.8018 22.9116 18.9162 22.7482C18.243 22.6199 17.6643 22.4332 17.1802 22.2466C16.9085 22.1416 16.6133 22.0132 16.3181 21.8499C16.3003 21.8382 16.2826 21.8295 16.2649 21.8207C16.2472 21.812 16.2295 21.8032 16.2118 21.7916C16.1882 21.7799 16.1763 21.7682 16.1645 21.7566C15.9519 21.6399 15.8338 21.5582 15.8338 21.5582C15.8338 21.5582 16.4008 22.4916 17.9005 22.9349C17.5463 23.3782 17.1093 23.9032 17.1093 23.9032C14.4994 23.8216 13.5074 22.1299 13.5074 22.1299C13.5074 18.3732 15.2079 15.3282 15.2079 15.3282C16.9085 14.0682 18.5264 14.1032 18.5264 14.1032L18.6445 14.2432C16.5188 14.8499 15.5386 15.7716 15.5386 15.7716C15.5386 15.7716 15.7984 15.6316 16.2354 15.4332C17.499 14.8849 18.5028 14.7332 18.9162 14.6982L18.9426 14.6938C19.0022 14.6838 19.0551 14.6749 19.1169 14.6749C19.8373 14.5816 20.6522 14.5582 21.5024 14.6516C22.6243 14.7799 23.8289 15.1066 25.0571 15.7716C25.0571 15.7716 24.1242 14.8966 22.1165 14.2899L22.2818 14.1032C22.2818 14.1032 23.8998 14.0682 25.6003 15.3282C25.6003 15.3282 27.3009 18.3732 27.3009 22.1299C27.3009 22.1299 26.2971 23.8216 23.6872 23.9032ZM18.5283 18.6666C17.8605 18.6666 17.3333 19.2672 17.3333 19.9999C17.3333 20.7327 17.8723 21.3332 18.5283 21.3332C19.1962 21.3332 19.7234 20.7327 19.7234 19.9999C19.7352 19.2672 19.1962 18.6666 18.5283 18.6666ZM21.6098 19.9999C21.6098 19.2672 22.137 18.6666 22.8049 18.6666C23.4728 18.6666 23.9999 19.2672 23.9999 19.9999C23.9999 20.7327 23.4728 21.3332 22.8049 21.3332C22.1488 21.3332 21.6098 20.7327 21.6098 19.9999Z" fill="#DFD5D5"/>
</svg>
