<svg width="40" height="40" viewBox="0 0 40 40" fill="none" xmlns="http://www.w3.org/2000/svg">
<path fill-rule="evenodd" clip-rule="evenodd" d="M0 20C0 31.0457 8.95433 40 20 40C31.0457 40 40 31.0457 40 20C40 8.95433 31.0457 0 20 0C8.95433 0 0 8.95433 0 20ZM20.023 32C20.023 32 14.6541 23.9705 12.7536 19.5064C12.2702 18.4659 12 17.3043 12 16.0789C12 11.6171 15.5817 8 20 8C24.4182 8 28 11.6171 28 16.0789C28 17.0608 27.8266 18.0017 27.5089 18.8722H27.5174C26.2439 22.259 20.023 32 20.023 32Z" fill="#DFD5D5"/>
<path d="M20 20.6667C22.5773 20.6667 24.6667 18.5773 24.6667 16C24.6667 13.4227 22.5773 11.3333 20 11.3333C17.4227 11.3333 15.3333 13.4227 15.3333 16C15.3333 18.5773 17.4227 20.6667 20 20.6667Z" fill="#DFD5D5"/>
</svg>
